<?xml version="1.0" ?><svg viewBox="0 0 351.39 350.81" xmlns="http://www.w3.org/2000/svg"><defs><style>.cls-1{fill:none;stroke:#050505;stroke-miterlimit:10;stroke-width:10px;}</style></defs><title/><g data-name="Layer 2" id="Layer_2"><g data-name="Layer 1" id="Layer_1-2"><path class="cls-1" d="M5,80.5V229A12.05,12.05,0,0,0,17.05,241H207.4"/><path class="cls-1" d="M5,58.84V34.19A12.05,12.05,0,0,1,17.05,22.13H95.2"/><path class="cls-1" d="M216.82,22.13H295A12.06,12.06,0,0,1,307,34.19V229A12.06,12.06,0,0,1,295,241H280.7"/><rect class="cls-1" height="34.26" rx="6.56" ry="6.56" width="121.63" x="95.19" y="5"/><line class="cls-1" x1="43.58" x2="77.62" y1="153.07" y2="189.38"/><line class="cls-1" x1="77.62" x2="43.58" y1="153.07" y2="189.38"/><line class="cls-1" x1="123.22" x2="157.26" y1="134.34" y2="170.65"/><line class="cls-1" x1="157.26" x2="123.22" y1="134.34" y2="170.65"/><path class="cls-1" d="M60.6,140.91V91.52a6.21,6.21,0,0,1,6.21-6.21h67.6"/><circle class="cls-1" cx="184.23" cy="85.31" r="15.64"/><polyline class="cls-1" points="124.87 106.55 140.24 85.31 124.87 64.08"/><rect class="cls-1" height="27.69" rx="4.88" ry="4.88" width="87.03" x="200.53" y="183.04"/><path class="cls-1" d="M294.09,287.59c-13.9-32.51-17.86-76.86-17.86-76.86H211.89s-4,44.35-17.89,76.86"/><path class="cls-1" d="M194.24,287.59h99.63a20.26,20.26,0,0,1,20.26,20.26v14.77a0,0,0,0,1,0,0H174a0,0,0,0,1,0,0V307.85a20.26,20.26,0,0,1,20.26-20.26Z"/><path class="cls-1" d="M237.57,128.76h12.95A29.26,29.26,0,0,1,279.78,158v25a0,0,0,0,1,0,0H208.31a0,0,0,0,1,0,0V158A29.26,29.26,0,0,1,237.57,128.76Z"/><circle class="cls-1" cx="244.04" cy="110.59" r="18.17"/><path class="cls-1" d="M304.93,345.81h41.46v-4.17a18.81,18.81,0,0,0-18.82-18.81H160.51a18.82,18.82,0,0,0-18.82,18.81v4.17H283.26"/><path class="cls-1" d="M257.92,45.77H278.8a4.76,4.76,0,0,1,4.76,4.76V71.91"/></g></g></svg>